<svg width="125" height="48" xmlns="http://www.w3.org/2000/svg" fill="none">

 <g>
  <title>Layer 1</title>
  <path id="svg_1" fill="black" d="m24.12699,22.37c4.6934,0.64 8.0427,2.0053 10.048,4.096c2.0054,2.048 3.008,4.5227 3.008,7.424c0,2.432 -0.6186,4.5867 -1.856,6.464c-1.2373,1.8773 -3.008,3.3493 -5.312,4.416c-2.304,1.024 -5.0346,1.536 -8.192,1.536c-1.152,0 -2.1333,-0.0213 -2.944,-0.064c-2.7306,-0.0853 -5.4186,-0.128 -8.064,-0.128c-3.49864,0 -6.14398,0.064 -7.93598,0.192l0,-1.28c1.536,-0.0853 2.64534,-0.256 3.328,-0.512c0.72534,-0.256 1.216,-0.7467 1.472,-1.472c0.256,-0.7253 0.384,-1.8987 0.384,-3.52l0,-31.744c0,-1.6213 -0.128,-2.7947 -0.384,-3.52c-0.256,-0.7253 -0.74666,-1.216 -1.472,-1.472c-0.68266,-0.256 -1.792,-0.4267 -3.328,-0.512l0,-1.28c1.792,0.128 4.39467,0.192 7.80798,0.192l6.912,-0.064c0.8107,-0.0427 1.728,-0.064 2.752,-0.064c4.352,0 7.68,0.9173 9.984,2.752c2.3467,1.8347 3.52,4.2667 3.52,7.296c0,2.4747 -0.7893,4.6933 -2.368,6.656c-1.536,1.9627 -3.9893,3.456 -7.36,4.48l0,0.128zm-5.376,-20.096c-1.3226,0 -2.3253,0.1493 -3.008,0.448c-0.64,0.2987 -1.088,0.832 -1.344,1.6c-0.256,0.768 -0.384,1.92 -0.384,3.456l0,14.464l4.288,0c3.4987,0 5.9307,-0.9387 7.296,-2.816c1.408,-1.92 2.112,-4.4587 2.112,-7.616c0,-3.2 -0.704,-5.5893 -2.112,-7.168c-1.408,-1.5787 -3.6906,-2.368 -6.848,-2.368zm0.064,42.56c7.9787,0 11.968,-3.7333 11.968,-11.2c0,-3.3707 -0.9173,-5.9307 -2.752,-7.68c-1.792,-1.7493 -4.672,-2.624 -8.64,-2.624l-5.376,0l0,16.192c0,1.536 0.128,2.6667 0.384,3.392c0.256,0.7253 0.704,1.2373 1.344,1.536c0.6827,0.256 1.7067,0.384 3.072,0.384zm44.401,-4.528c-0.6,1.8333 -1.7333,3.4167 -3.4,4.75c-1.6333,1.3 -3.6166,1.95 -5.95,1.95c-2.3666,0 -4.4166,-0.5333 -6.15,-1.6c-1.7333,-1.1 -3.0666,-2.6167 -4,-4.55c-0.9,-1.9667 -1.35,-4.2333 -1.35,-6.8c0,-2.9 0.4667,-5.4167 1.4,-7.55c0.9334,-2.1333 2.25,-3.7667 3.95,-4.9c1.7,-1.1667 3.6834,-1.75 5.95,-1.75c3,0 5.3,0.9167 6.9,2.75c1.6334,1.8 2.45,4.55 2.45,8.25l-15.65,0c-0.1,0.9333 -0.15,2 -0.15,3.2c0,2.2 0.35,4.1167 1.05,5.75c0.7334,1.6333 1.6834,2.9 2.85,3.8c1.2,0.8667 2.45,1.3 3.75,1.3c1.6,0 3.0167,-0.3833 4.25,-1.15c1.2334,-0.7667 2.2667,-2.05 3.1,-3.85l1,0.4zm-9.75,-19.5c-1.5666,0 -2.9166,0.7667 -4.05,2.3c-1.1333,1.5333 -1.8333,3.8 -2.1,6.8l10.9,0c0.0667,-2.6 -0.3166,-4.7667 -1.15,-6.5c-0.8,-1.7333 -2,-2.6 -3.6,-2.6zm30.143,-0.95c2.3333,0 4.1,0.6333 5.3,1.9c0.6333,0.6667 1.0833,1.5 1.35,2.5c0.2667,1 0.4,2.35 0.4,4.05l0,13.35c0,1.3667 0.2833,2.3167 0.85,2.85c0.5667,0.5 1.55,0.75 2.95,0.75l0,1.05c-3.0667,-0.1333 -5.0667,-0.2 -6,-0.2c-0.9333,0 -2.8,0.0667 -5.6,0.2l0,-1.05c1.2333,0 2.0833,-0.25 2.55,-0.75c0.5,-0.5333 0.75,-1.4833 0.75,-2.85l0,-14.45c0,-1.8667 -0.2667,-3.2833 -0.8,-4.25c-0.5333,-1 -1.6167,-1.5 -3.25,-1.5c-1.3667,0 -2.5833,0.4 -3.65,1.2c-1.0667,0.8 -1.9,1.9 -2.5,3.3c-0.5667,1.3667 -0.85,2.9 -0.85,4.6l0,11.1c0,1.3667 0.2333,2.3167 0.7,2.85c0.5,0.5 1.3667,0.75 2.6,0.75l0,1.05c-2.8,-0.1333 -4.6667,-0.2 -5.6,-0.2c-0.9333,0 -2.9333,0.0667 -6,0.2l0,-1.05c1.4,0 2.3833,-0.25 2.95,-0.75c0.5667,-0.5333 0.85,-1.4833 0.85,-2.85l0,-15.65c0,-1.5333 -0.2833,-2.65 -0.85,-3.35c-0.5667,-0.7 -1.55,-1.05 -2.95,-1.05l0,-1.05c1.0667,0.1 2.1,0.15 3.1,0.15c2.1,0 3.8333,-0.2333 5.2,-0.7l0,5.9c0.8333,-2.1333 1.9833,-3.6667 3.45,-4.6c1.5,-0.9667 3.1833,-1.45 5.05,-1.45zm38.176,20.306c0,1.824 0.112,3.872 0.336,6.144c-2.176,-0.096 -5.84,-0.144 -10.992,-0.144c-6.144,0 -10.784,0.048 -13.92,0.144l0,-0.96c1.152,-0.064 1.984,-0.192 2.496,-0.384c0.544,-0.192 0.912,-0.56 1.104,-1.104c0.192,-0.544 0.288,-1.424 0.288,-2.64l0,-23.808c0,-1.216 -0.096,-2.096 -0.288,-2.64c-0.192,-0.544 -0.56,-0.912 -1.104,-1.104c-0.512,-0.192 -1.344,-0.32 -2.496,-0.384l0,-0.96c3.136,0.096 7.776,0.144 13.92,0.144c4.704,0 8.048,-0.048 10.032,-0.144c-0.224,2.112 -0.336,4 -0.336,5.664c0,1.248 0.048,2.24 0.144,2.976l-1.104,0c-0.224,-2.08 -0.512,-3.616 -0.864,-4.608c-0.352,-1.024 -0.944,-1.76 -1.776,-2.208c-0.832,-0.48 -2.096,-0.72 -3.792,-0.72l-3.984,0c-1.152,0 -2,0.096 -2.544,0.288c-0.512,0.16 -0.864,0.512 -1.056,1.056c-0.192,0.544 -0.288,1.424 -0.288,2.64l0,11.328l3.168,0c1.12,0 1.984,-0.256 2.592,-0.768c0.608,-0.544 1.008,-1.168 1.2,-1.872c0.224,-0.736 0.4,-1.648 0.528,-2.736l0.144,-0.96l1.104,0c-0.096,1.344 -0.144,2.848 -0.144,4.512l0,2.304c0,1.632 0.096,3.904 0.288,6.816l-1.104,0c-0.032,-0.224 -0.128,-0.992 -0.288,-2.304c-0.16,-1.344 -0.608,-2.352 -1.344,-3.024c-0.704,-0.672 -1.696,-1.008 -2.976,-1.008l-3.168,0l0,11.52c0,1.216 0.096,2.096 0.288,2.64c0.192,0.544 0.544,0.912 1.056,1.104c0.544,0.16 1.392,0.24 2.544,0.24l3.504,0c1.984,0 3.488,-0.256 4.512,-0.768c1.056,-0.544 1.824,-1.392 2.304,-2.544c0.48,-1.184 0.832,-2.912 1.056,-5.184l1.104,0c-0.096,0.864 -0.144,2.016 -0.144,3.456z"/>
  <path id="svg_2" fill="black" d="m38.41345,12.476l0,2.52c0,0.3547 0.0374,0.6113 0.112,0.77c0.0747,0.1587 0.2054,0.266 0.392,0.322c0.1867,0.056 0.49,0.0933 0.91,0.112l0,0.28c-0.4853,-0.028 -1.1713,-0.042 -2.058,-0.042c-0.8026,0 -1.4,0.014 -1.792,0.042l0,-0.28c0.336,-0.0187 0.5787,-0.056 0.728,-0.112c0.1587,-0.056 0.266,-0.1633 0.322,-0.322c0.056,-0.1587 0.084,-0.4153 0.084,-0.77l0,-6.944c0,-0.3547 -0.028,-0.6113 -0.084,-0.77c-0.056,-0.1587 -0.1633,-0.266 -0.322,-0.322c-0.1493,-0.056 -0.392,-0.0933 -0.728,-0.112l0,-0.28c0.392,0.028 0.9614,0.042 1.708,0.042l1.512,-0.014c0.1774,-0.0093 0.378,-0.014 0.602,-0.014c1.092,0 1.9274,0.252 2.506,0.756c0.5787,0.4947 0.868,1.162 0.868,2.002c0,0.5133 -0.1166,1.008 -0.35,1.484c-0.224,0.4667 -0.6113,0.8587 -1.162,1.176c-0.5413,0.3173 -1.2646,0.476 -2.17,0.476l-1.078,0zm1.036,-5.628c-0.2893,0 -0.5086,0.0327 -0.658,0.098c-0.14,0.0653 -0.238,0.182 -0.294,0.35c-0.056,0.168 -0.084,0.42 -0.084,0.756l0,4.144l0.938,0c0.9147,0 1.5447,-0.2427 1.89,-0.728c0.3547,-0.4947 0.532,-1.1527 0.532,-1.974c0,-0.9053 -0.182,-1.5727 -0.546,-2.002c-0.3546,-0.4293 -0.9473,-0.644 -1.778,-0.644zm6.1315,-1.078c0.2427,0 0.4527,0.0887 0.63,0.266c0.1773,0.1773 0.266,0.3873 0.266,0.63c0,0.2427 -0.0887,0.4527 -0.266,0.63c-0.1773,0.1773 -0.3873,0.266 -0.63,0.266c-0.2427,0 -0.4527,-0.0887 -0.63,-0.266c-0.1773,-0.1773 -0.266,-0.3873 -0.266,-0.63c0,-0.2427 0.0887,-0.4527 0.266,-0.63c0.1773,-0.1773 0.3873,-0.266 0.63,-0.266zm0.728,9.408c0,0.3827 0.0793,0.6487 0.238,0.798c0.1587,0.14 0.434,0.21 0.826,0.21l0,0.294c-0.8587,-0.0373 -1.4233,-0.056 -1.694,-0.056c-0.2707,0 -0.8353,0.0187 -1.694,0.056l0,-0.294c0.392,0 0.6673,-0.07 0.826,-0.21c0.1587,-0.1493 0.238,-0.4153 0.238,-0.798l0,-4.382c0,-0.4293 -0.0793,-0.742 -0.238,-0.938c-0.1587,-0.196 -0.434,-0.294 -0.826,-0.294l0,-0.294c0.2987,0.028 0.588,0.042 0.868,0.042c0.588,0 1.0733,-0.0653 1.456,-0.196l0,6.062zm6.4816,-6.104c0.6533,0 1.148,0.1773 1.484,0.532c0.1773,0.1867 0.3033,0.42 0.378,0.7c0.0746,0.28 0.112,0.658 0.112,1.134l0,3.738c0,0.3827 0.0793,0.6487 0.238,0.798c0.1586,0.14 0.434,0.21 0.826,0.21l0,0.294c-0.8587,-0.0373 -1.4187,-0.056 -1.68,-0.056c-0.2614,0 -0.784,0.0187 -1.568,0.056l0,-0.294c0.3453,0 0.5833,-0.07 0.714,-0.21c0.14,-0.1493 0.21,-0.4153 0.21,-0.798l0,-4.046c0,-0.5227 -0.0747,-0.9193 -0.224,-1.19c-0.1494,-0.28 -0.4527,-0.42 -0.91,-0.42c-0.3827,0 -0.7234,0.112 -1.022,0.336c-0.2987,0.224 -0.532,0.532 -0.7,0.924c-0.1587,0.3827 -0.238,0.812 -0.238,1.288l0,3.108c0,0.3827 0.0653,0.6487 0.196,0.798c0.14,0.14 0.3826,0.21 0.728,0.21l0,0.294c-0.784,-0.0373 -1.3067,-0.056 -1.568,-0.056c-0.2614,0 -0.8214,0.0187 -1.68,0.056l0,-0.294c0.392,0 0.6673,-0.07 0.826,-0.21c0.1586,-0.1493 0.238,-0.4153 0.238,-0.798l0,-4.382c0,-0.4293 -0.0794,-0.742 -0.238,-0.938c-0.1587,-0.196 -0.434,-0.294 -0.826,-0.294l0,-0.294c0.2986,0.028 0.588,0.042 0.868,0.042c0.588,0 1.0733,-0.0653 1.456,-0.196l0,1.652c0.2333,-0.5973 0.5553,-1.0267 0.966,-1.288c0.42,-0.2707 0.8913,-0.406 1.414,-0.406zm7.1495,0c0.6253,0 1.1666,0.1493 1.624,0.448c0.4386,0.2893 0.658,0.6487 0.658,1.078c0,0.2427 -0.07,0.434 -0.21,0.574c-0.14,0.14 -0.3174,0.21 -0.532,0.21c-0.2147,0 -0.3967,-0.0607 -0.546,-0.182c-0.1494,-0.1307 -0.224,-0.3033 -0.224,-0.518c0,-0.196 0.056,-0.3593 0.168,-0.49c0.112,-0.14 0.252,-0.2333 0.42,-0.28c-0.0934,-0.168 -0.2614,-0.308 -0.504,-0.42c-0.2334,-0.112 -0.4854,-0.168 -0.756,-0.168c-0.3454,0 -0.6674,0.112 -0.966,0.336c-0.2987,0.2147 -0.546,0.5787 -0.742,1.092c-0.196,0.504 -0.294,1.1713 -0.294,2.002c0,1.1573 0.1866,2.002 0.56,2.534c0.3733,0.5227 0.8586,0.784 1.456,0.784c0.4013,0 0.7793,-0.1167 1.134,-0.35c0.364,-0.2333 0.6626,-0.5973 0.896,-1.092l0.266,0.098c-0.1587,0.532 -0.4574,0.9893 -0.896,1.372c-0.4294,0.3827 -0.9894,0.574 -1.68,0.574c-0.5787,0 -1.106,-0.1493 -1.582,-0.448c-0.4667,-0.2987 -0.8354,-0.728 -1.106,-1.288c-0.2707,-0.5693 -0.406,-1.2273 -0.406,-1.974c0,-0.756 0.1353,-1.428 0.406,-2.016c0.28,-0.588 0.6673,-1.0453 1.162,-1.372c0.4946,-0.336 1.0593,-0.504 1.694,-0.504zm9.3846,5.726c-0.168,0.5133 -0.4854,0.9567 -0.952,1.33c-0.4574,0.364 -1.0127,0.546 -1.666,0.546c-0.6627,0 -1.2367,-0.1493 -1.722,-0.448c-0.4854,-0.308 -0.8587,-0.7327 -1.12,-1.274c-0.252,-0.5507 -0.378,-1.1853 -0.378,-1.904c0,-0.812 0.1306,-1.5167 0.392,-2.114c0.2613,-0.5973 0.63,-1.0547 1.106,-1.372c0.476,-0.3267 1.0313,-0.49 1.666,-0.49c0.84,0 1.484,0.2567 1.932,0.77c0.4573,0.504 0.686,1.274 0.686,2.31l-4.382,0c-0.028,0.2613 -0.042,0.56 -0.042,0.896c0,0.616 0.098,1.1527 0.294,1.61c0.2053,0.4573 0.4713,0.812 0.798,1.064c0.336,0.2427 0.686,0.364 1.05,0.364c0.448,0 0.8446,-0.1073 1.19,-0.322c0.3453,-0.2147 0.6346,-0.574 0.868,-1.078l0.28,0.112zm-2.73,-5.46c-0.4387,0 -0.8167,0.2147 -1.134,0.644c-0.3174,0.4293 -0.5134,1.064 -0.588,1.904l3.052,0c0.0186,-0.728 -0.0887,-1.3347 -0.322,-1.82c-0.224,-0.4853 -0.56,-0.728 -1.008,-0.728zm1.54,-4.242c0.1306,0.112 0.196,0.2427 0.196,0.392c0,0.14 -0.0654,0.2987 -0.196,0.476c-0.1867,0.2333 -0.4527,0.49 -0.798,0.77c-0.0654,0.056 -0.238,0.2147 -0.518,0.476c-0.2707,0.252 -0.5694,0.546 -0.896,0.882l-0.154,-0.126c0.3453,-0.5507 0.6673,-1.1153 0.966,-1.694c0.2146,-0.4293 0.4013,-0.7513 0.56,-0.966c0.1493,-0.2053 0.3266,-0.308 0.532,-0.308c0.1306,0 0.2333,0.0327 0.308,0.098zm4.702,3.976c0.336,0 0.6347,0.0513 0.896,0.154c0.2613,0.1027 0.4713,0.224 0.63,0.364c0.1027,0.0747 0.1867,0.112 0.252,0.112c0.168,0 0.2707,-0.2053 0.308,-0.616l0.322,0c-0.0373,0.4573 -0.056,1.2507 -0.056,2.38l-0.322,0c-0.1027,-0.616 -0.3033,-1.1247 -0.602,-1.526c-0.2893,-0.4013 -0.7233,-0.602 -1.302,-0.602c-0.336,0 -0.6113,0.098 -0.826,0.294c-0.2147,0.1867 -0.322,0.448 -0.322,0.784c0,0.3267 0.112,0.602 0.336,0.826c0.224,0.2147 0.5833,0.476 1.078,0.784c0.084,0.0467 0.21,0.126 0.378,0.238c0.4293,0.28 0.7747,0.5273 1.036,0.742c0.2613,0.2147 0.4713,0.462 0.63,0.742c0.168,0.28 0.252,0.602 0.252,0.966c0,0.616 -0.2333,1.0967 -0.7,1.442c-0.4573,0.3453 -1.022,0.518 -1.694,0.518c-0.42,0 -0.7887,-0.0653 -1.106,-0.196c-0.2053,-0.1027 -0.3967,-0.2287 -0.574,-0.378c-0.0373,-0.0373 -0.0793,-0.056 -0.126,-0.056c-0.0653,0 -0.126,0.0467 -0.182,0.14c-0.0467,0.0933 -0.084,0.224 -0.112,0.392l-0.322,0c0.0373,-0.532 0.056,-1.4653 0.056,-2.8l0.322,0c0.1027,0.8773 0.2893,1.5353 0.56,1.974c0.2707,0.4293 0.7327,0.644 1.386,0.644c0.3267,0 0.616,-0.1073 0.868,-0.322c0.252,-0.2147 0.378,-0.5507 0.378,-1.008c0,-0.364 -0.126,-0.672 -0.378,-0.924c-0.2427,-0.252 -0.644,-0.5553 -1.204,-0.91c-0.4573,-0.2893 -0.812,-0.5273 -1.064,-0.714c-0.2427,-0.1867 -0.448,-0.4153 -0.616,-0.686c-0.168,-0.2707 -0.252,-0.588 -0.252,-0.952c0,-0.588 0.196,-1.036 0.588,-1.344c0.392,-0.308 0.8867,-0.462 1.484,-0.462zm5.4497,7.196l1.54,0c0.5787,0 1.0313,-0.1773 1.358,-0.532c0.3267,-0.364 0.5227,-0.938 0.588,-1.722l0.322,0c0,1.2227 0.0187,2.0627 0.056,2.52c-0.7373,-0.0373 -1.6053,-0.056 -2.604,-0.056c-0.8867,0 -1.8293,0.0233 -2.828,0.07l4.046,-7.07l-1.54,0c-0.6253,0 -1.092,0.1773 -1.4,0.532c-0.2987,0.3453 -0.4807,0.9193 -0.546,1.722l-0.322,0c0,-1.2227 -0.0187,-2.0627 -0.056,-2.52c0.7373,0.0373 1.6053,0.056 2.604,0.056c0.8867,0 1.8293,-0.0233 2.828,-0.07l-4.046,7.07zm11.0402,-1.47c-0.168,0.5133 -0.4853,0.9567 -0.952,1.33c-0.4573,0.364 -1.0127,0.546 -1.666,0.546c-0.6627,0 -1.2367,-0.1493 -1.722,-0.448c-0.4853,-0.308 -0.8587,-0.7327 -1.12,-1.274c-0.252,-0.5507 -0.378,-1.1853 -0.378,-1.904c0,-0.812 0.1307,-1.5167 0.392,-2.114c0.2613,-0.5973 0.63,-1.0547 1.106,-1.372c0.476,-0.3267 1.0313,-0.49 1.666,-0.49c0.84,0 1.484,0.2567 1.932,0.77c0.4573,0.504 0.686,1.274 0.686,2.31l-4.382,0c-0.028,0.2613 -0.042,0.56 -0.042,0.896c0,0.616 0.098,1.1527 0.294,1.61c0.2053,0.4573 0.4713,0.812 0.798,1.064c0.336,0.2427 0.686,0.364 1.05,0.364c0.448,0 0.8447,-0.1073 1.19,-0.322c0.3453,-0.2147 0.6347,-0.574 0.868,-1.078l0.28,0.112zm-2.73,-5.46c-0.4387,0 -0.8167,0.2147 -1.134,0.644c-0.3173,0.4293 -0.5133,1.064 -0.588,1.904l3.052,0c0.0187,-0.728 -0.0887,-1.3347 -0.322,-1.82c-0.224,-0.4853 -0.56,-0.728 -1.008,-0.728zm5.99,-0.056l2.072,0l0,0.28l-2.072,0l0,5.418c0,0.42 0.0747,0.7233 0.224,0.91c0.1587,0.1867 0.3827,0.28 0.672,0.28c0.2894,0 0.5367,-0.1167 0.742,-0.35c0.2054,-0.2333 0.378,-0.616 0.518,-1.148l0.28,0.07c-0.2333,1.288 -0.84,1.932 -1.82,1.932c-0.3173,0 -0.5786,-0.0373 -0.784,-0.112c-0.2053,-0.0747 -0.3873,-0.1913 -0.546,-0.35c-0.2053,-0.2053 -0.35,-0.4573 -0.434,-0.756c-0.0746,-0.2987 -0.112,-0.7 -0.112,-1.204l0,-4.69l-1.344,0l0,-0.28l1.344,0l0,-2.142c0.5227,-0.0187 0.9427,-0.084 1.26,-0.196l0,2.338z"/>
 </g>
</svg>