<svg width="125" height="61" viewBox="0 0 125 61" fill="none" xmlns="http://www.w3.org/2000/svg">
<path d="M24.31 35.064C29.0034 35.704 32.3527 37.0693 34.358 39.16C36.3634 41.208 37.366 43.6827 37.366 46.584C37.366 49.016 36.7474 51.1707 35.51 53.048C34.2727 54.9253 32.502 56.3973 30.198 57.464C27.894 58.488 25.1634 59 22.006 59C20.854 59 19.8727 58.9787 19.062 58.936C16.3314 58.8507 13.6434 58.808 10.998 58.808C7.49936 58.808 4.85402 58.872 3.06202 59V57.72C4.59802 57.6347 5.70736 57.464 6.39002 57.208C7.11536 56.952 7.60602 56.4613 7.86202 55.736C8.11802 55.0107 8.24602 53.8373 8.24602 52.216V20.472C8.24602 18.8507 8.11802 17.6773 7.86202 16.952C7.60602 16.2267 7.11536 15.736 6.39002 15.48C5.70736 15.224 4.59802 15.0533 3.06202 14.968V13.688C4.85402 13.816 7.45669 13.88 10.87 13.88L17.782 13.816C18.5927 13.7733 19.51 13.752 20.534 13.752C24.886 13.752 28.214 14.6693 30.518 16.504C32.8647 18.3387 34.038 20.7707 34.038 23.8C34.038 26.2747 33.2487 28.4933 31.67 30.456C30.134 32.4187 27.6807 33.912 24.31 34.936V35.064ZM18.934 14.968C17.6114 14.968 16.6087 15.1173 15.926 15.416C15.286 15.7147 14.838 16.248 14.582 17.016C14.326 17.784 14.198 18.936 14.198 20.472V34.936H18.486C21.9847 34.936 24.4167 33.9973 25.782 32.12C27.19 30.2 27.894 27.6613 27.894 24.504C27.894 21.304 27.19 18.9147 25.782 17.336C24.374 15.7573 22.0914 14.968 18.934 14.968ZM18.998 57.528C26.9767 57.528 30.966 53.7947 30.966 46.328C30.966 42.9573 30.0487 40.3973 28.214 38.648C26.422 36.8987 23.542 36.024 19.574 36.024H14.198V52.216C14.198 53.752 14.326 54.8827 14.582 55.608C14.838 56.3333 15.286 56.8453 15.926 57.144C16.6087 57.4 17.6327 57.528 18.998 57.528ZM63.399 53C62.799 54.8333 61.6657 56.4167 59.999 57.75C58.3657 59.05 56.3824 59.7 54.049 59.7C51.6824 59.7 49.6324 59.1667 47.899 58.1C46.1657 57 44.8324 55.4833 43.899 53.55C42.999 51.5833 42.549 49.3167 42.549 46.75C42.549 43.85 43.0157 41.3333 43.949 39.2C44.8824 37.0667 46.199 35.4333 47.899 34.3C49.599 33.1333 51.5824 32.55 53.849 32.55C56.849 32.55 59.149 33.4667 60.749 35.3C62.3824 37.1 63.199 39.85 63.199 43.55H47.549C47.449 44.4833 47.399 45.55 47.399 46.75C47.399 48.95 47.749 50.8667 48.449 52.5C49.1824 54.1333 50.1324 55.4 51.299 56.3C52.499 57.1667 53.749 57.6 55.049 57.6C56.649 57.6 58.0657 57.2167 59.299 56.45C60.5324 55.6833 61.5657 54.4 62.399 52.6L63.399 53ZM53.649 33.5C52.0824 33.5 50.7324 34.2667 49.599 35.8C48.4657 37.3333 47.7657 39.6 47.499 42.6H58.399C58.4657 40 58.0824 37.8333 57.249 36.1C56.449 34.3667 55.249 33.5 53.649 33.5ZM83.792 32.55C86.1253 32.55 87.892 33.1833 89.092 34.45C89.7253 35.1167 90.1753 35.95 90.442 36.95C90.7087 37.95 90.842 39.3 90.842 41V54.35C90.842 55.7167 91.1253 56.6667 91.692 57.2C92.2587 57.7 93.242 57.95 94.642 57.95V59C91.5753 58.8667 89.5753 58.8 88.642 58.8C87.7087 58.8 85.842 58.8667 83.042 59V57.95C84.2753 57.95 85.1253 57.7 85.592 57.2C86.092 56.6667 86.342 55.7167 86.342 54.35V39.9C86.342 38.0333 86.0753 36.6167 85.542 35.65C85.0087 34.65 83.9253 34.15 82.292 34.15C80.9253 34.15 79.7087 34.55 78.642 35.35C77.5753 36.15 76.742 37.25 76.142 38.65C75.5753 40.0167 75.292 41.55 75.292 43.25V54.35C75.292 55.7167 75.5253 56.6667 75.992 57.2C76.492 57.7 77.3587 57.95 78.592 57.95V59C75.792 58.8667 73.9253 58.8 72.992 58.8C72.0587 58.8 70.0587 58.8667 66.992 59V57.95C68.392 57.95 69.3753 57.7 69.942 57.2C70.5087 56.6667 70.792 55.7167 70.792 54.35V38.7C70.792 37.1667 70.5087 36.05 69.942 35.35C69.3753 34.65 68.392 34.3 66.992 34.3V33.25C68.0587 33.35 69.092 33.4 70.092 33.4C72.192 33.4 73.9253 33.1667 75.292 32.7V38.6C76.1253 36.4667 77.2753 34.9333 78.742 34C80.242 33.0333 81.9253 32.55 83.792 32.55ZM121.968 52.856C121.968 54.68 122.08 56.728 122.304 59C120.128 58.904 116.464 58.856 111.312 58.856C105.168 58.856 100.528 58.904 97.392 59V58.04C98.544 57.976 99.376 57.848 99.888 57.656C100.432 57.464 100.8 57.096 100.992 56.552C101.184 56.008 101.28 55.128 101.28 53.912V30.104C101.28 28.888 101.184 28.008 100.992 27.464C100.8 26.92 100.432 26.552 99.888 26.36C99.376 26.168 98.544 26.04 97.392 25.976V25.016C100.528 25.112 105.168 25.16 111.312 25.16C116.016 25.16 119.36 25.112 121.344 25.016C121.12 27.128 121.008 29.016 121.008 30.68C121.008 31.928 121.056 32.92 121.152 33.656H120.048C119.824 31.576 119.536 30.04 119.184 29.048C118.832 28.024 118.24 27.288 117.408 26.84C116.576 26.36 115.312 26.12 113.616 26.12H109.632C108.48 26.12 107.632 26.216 107.088 26.408C106.576 26.568 106.224 26.92 106.032 27.464C105.84 28.008 105.744 28.888 105.744 30.104V41.432H108.912C110.032 41.432 110.896 41.176 111.504 40.664C112.112 40.12 112.512 39.496 112.704 38.792C112.928 38.056 113.104 37.144 113.232 36.056L113.376 35.096H114.48C114.384 36.44 114.336 37.944 114.336 39.608V41.912C114.336 43.544 114.432 45.816 114.624 48.728H113.52C113.488 48.504 113.392 47.736 113.232 46.424C113.072 45.08 112.624 44.072 111.888 43.4C111.184 42.728 110.192 42.392 108.912 42.392H105.744V53.912C105.744 55.128 105.84 56.008 106.032 56.552C106.224 57.096 106.576 57.464 107.088 57.656C107.632 57.816 108.48 57.896 109.632 57.896H113.136C115.12 57.896 116.624 57.64 117.648 57.128C118.704 56.584 119.472 55.736 119.952 54.584C120.432 53.4 120.784 51.672 121.008 49.4H122.112C122.016 50.264 121.968 51.416 121.968 52.856Z" fill="black"/>
<path d="M39.7808 23.996V26.516C39.7808 26.8707 39.8182 27.1273 39.8928 27.286C39.9675 27.4447 40.0982 27.552 40.2848 27.608C40.4715 27.664 40.7748 27.7013 41.1948 27.72V28C40.7095 27.972 40.0235 27.958 39.1368 27.958C38.3342 27.958 37.7368 27.972 37.3448 28V27.72C37.6808 27.7013 37.9235 27.664 38.0728 27.608C38.2315 27.552 38.3388 27.4447 38.3948 27.286C38.4508 27.1273 38.4788 26.8707 38.4788 26.516V19.572C38.4788 19.2173 38.4508 18.9607 38.3948 18.802C38.3388 18.6433 38.2315 18.536 38.0728 18.48C37.9235 18.424 37.6808 18.3867 37.3448 18.368V18.088C37.7368 18.116 38.3062 18.13 39.0528 18.13L40.5648 18.116C40.7422 18.1067 40.9428 18.102 41.1668 18.102C42.2588 18.102 43.0942 18.354 43.6728 18.858C44.2515 19.3527 44.5408 20.02 44.5408 20.86C44.5408 21.3733 44.4242 21.868 44.1908 22.344C43.9668 22.8107 43.5795 23.2027 43.0288 23.52C42.4875 23.8373 41.7642 23.996 40.8588 23.996H39.7808ZM40.8168 18.368C40.5275 18.368 40.3082 18.4007 40.1588 18.466C40.0188 18.5313 39.9208 18.648 39.8648 18.816C39.8088 18.984 39.7808 19.236 39.7808 19.572V23.716H40.7188C41.6335 23.716 42.2635 23.4733 42.6088 22.988C42.9635 22.4933 43.1408 21.8353 43.1408 21.014C43.1408 20.1087 42.9588 19.4413 42.5948 19.012C42.2402 18.5827 41.6475 18.368 40.8168 18.368ZM46.9483 17.29C47.191 17.29 47.401 17.3787 47.5783 17.556C47.7556 17.7333 47.8443 17.9433 47.8443 18.186C47.8443 18.4287 47.7556 18.6387 47.5783 18.816C47.401 18.9933 47.191 19.082 46.9483 19.082C46.7056 19.082 46.4956 18.9933 46.3183 18.816C46.141 18.6387 46.0523 18.4287 46.0523 18.186C46.0523 17.9433 46.141 17.7333 46.3183 17.556C46.4956 17.3787 46.7056 17.29 46.9483 17.29ZM47.6763 26.698C47.6763 27.0807 47.7556 27.3467 47.9143 27.496C48.073 27.636 48.3483 27.706 48.7403 27.706V28C47.8816 27.9627 47.317 27.944 47.0463 27.944C46.7756 27.944 46.211 27.9627 45.3523 28V27.706C45.7443 27.706 46.0196 27.636 46.1783 27.496C46.337 27.3467 46.4163 27.0807 46.4163 26.698V22.316C46.4163 21.8867 46.337 21.574 46.1783 21.378C46.0196 21.182 45.7443 21.084 45.3523 21.084V20.79C45.651 20.818 45.9403 20.832 46.2203 20.832C46.8083 20.832 47.2936 20.7667 47.6763 20.636V26.698ZM54.1579 20.594C54.8112 20.594 55.3059 20.7713 55.6419 21.126C55.8192 21.3127 55.9452 21.546 56.0199 21.826C56.0945 22.106 56.1319 22.484 56.1319 22.96V26.698C56.1319 27.0807 56.2112 27.3467 56.3699 27.496C56.5285 27.636 56.8039 27.706 57.1959 27.706V28C56.3372 27.9627 55.7772 27.944 55.5159 27.944C55.2545 27.944 54.7319 27.9627 53.9479 28V27.706C54.2932 27.706 54.5312 27.636 54.6619 27.496C54.8019 27.3467 54.8719 27.0807 54.8719 26.698V22.652C54.8719 22.1293 54.7972 21.7327 54.6479 21.462C54.4985 21.182 54.1952 21.042 53.7379 21.042C53.3552 21.042 53.0145 21.154 52.7159 21.378C52.4172 21.602 52.1839 21.91 52.0159 22.302C51.8572 22.6847 51.7779 23.114 51.7779 23.59V26.698C51.7779 27.0807 51.8432 27.3467 51.9739 27.496C52.1139 27.636 52.3565 27.706 52.7019 27.706V28C51.9179 27.9627 51.3952 27.944 51.1339 27.944C50.8725 27.944 50.3125 27.9627 49.4539 28V27.706C49.8459 27.706 50.1212 27.636 50.2799 27.496C50.4385 27.3467 50.5179 27.0807 50.5179 26.698V22.316C50.5179 21.8867 50.4385 21.574 50.2799 21.378C50.1212 21.182 49.8459 21.084 49.4539 21.084V20.79C49.7525 20.818 50.0419 20.832 50.3219 20.832C50.9099 20.832 51.3952 20.7667 51.7779 20.636V22.288C52.0112 21.6907 52.3332 21.2613 52.7439 21C53.1639 20.7293 53.6352 20.594 54.1579 20.594ZM61.3074 20.594C61.9327 20.594 62.474 20.7433 62.9314 21.042C63.37 21.3313 63.5894 21.6907 63.5894 22.12C63.5894 22.3627 63.5194 22.554 63.3794 22.694C63.2394 22.834 63.062 22.904 62.8474 22.904C62.6327 22.904 62.4507 22.8433 62.3014 22.722C62.152 22.5913 62.0774 22.4187 62.0774 22.204C62.0774 22.008 62.1334 21.8447 62.2454 21.714C62.3574 21.574 62.4974 21.4807 62.6654 21.434C62.572 21.266 62.404 21.126 62.1614 21.014C61.928 20.902 61.676 20.846 61.4054 20.846C61.06 20.846 60.738 20.958 60.4394 21.182C60.1407 21.3967 59.8934 21.7607 59.6974 22.274C59.5014 22.778 59.4034 23.4453 59.4034 24.276C59.4034 25.4333 59.59 26.278 59.9634 26.81C60.3367 27.3327 60.822 27.594 61.4194 27.594C61.8207 27.594 62.1987 27.4773 62.5534 27.244C62.9174 27.0107 63.216 26.6467 63.4494 26.152L63.7154 26.25C63.5567 26.782 63.258 27.2393 62.8194 27.622C62.39 28.0047 61.83 28.196 61.1394 28.196C60.5607 28.196 60.0334 28.0467 59.5574 27.748C59.0907 27.4493 58.722 27.02 58.4514 26.46C58.1807 25.8907 58.0454 25.2327 58.0454 24.486C58.0454 23.73 58.1807 23.058 58.4514 22.47C58.7314 21.882 59.1187 21.4247 59.6134 21.098C60.108 20.762 60.6727 20.594 61.3074 20.594ZM70.692 26.32C70.524 26.8333 70.2066 27.2767 69.74 27.65C69.2826 28.014 68.7273 28.196 68.074 28.196C67.4113 28.196 66.8373 28.0467 66.352 27.748C65.8666 27.44 65.4933 27.0153 65.232 26.474C64.98 25.9233 64.854 25.2887 64.854 24.57C64.854 23.758 64.9846 23.0533 65.246 22.456C65.5073 21.8587 65.876 21.4013 66.352 21.084C66.828 20.7573 67.3833 20.594 68.018 20.594C68.858 20.594 69.502 20.8507 69.95 21.364C70.4073 21.868 70.636 22.638 70.636 23.674H66.254C66.226 23.9353 66.212 24.234 66.212 24.57C66.212 25.186 66.31 25.7227 66.506 26.18C66.7113 26.6373 66.9773 26.992 67.304 27.244C67.64 27.4867 67.99 27.608 68.354 27.608C68.802 27.608 69.1986 27.5007 69.544 27.286C69.8893 27.0713 70.1786 26.712 70.412 26.208L70.692 26.32ZM67.962 20.86C67.5233 20.86 67.1453 21.0747 66.828 21.504C66.5106 21.9333 66.3146 22.568 66.24 23.408H69.292C69.3106 22.68 69.2033 22.0733 68.97 21.588C68.746 21.1027 68.41 20.86 67.962 20.86ZM69.502 16.618C69.6326 16.73 69.698 16.8607 69.698 17.01C69.698 17.15 69.6326 17.3087 69.502 17.486C69.3153 17.7193 69.0493 17.976 68.704 18.256C68.6386 18.312 68.466 18.4707 68.186 18.732C67.9153 18.984 67.6166 19.278 67.29 19.614L67.136 19.488C67.4813 18.9373 67.8033 18.3727 68.102 17.794C68.3166 17.3647 68.5033 17.0427 68.662 16.828C68.8113 16.6227 68.9886 16.52 69.194 16.52C69.3246 16.52 69.4273 16.5527 69.502 16.618ZM74.204 20.594C74.54 20.594 74.8387 20.6453 75.1 20.748C75.3613 20.8507 75.5713 20.972 75.73 21.112C75.8327 21.1867 75.9167 21.224 75.982 21.224C76.15 21.224 76.2527 21.0187 76.29 20.608H76.612C76.5747 21.0653 76.556 21.8587 76.556 22.988H76.234C76.1313 22.372 75.9307 21.8633 75.632 21.462C75.3427 21.0607 74.9087 20.86 74.33 20.86C73.994 20.86 73.7187 20.958 73.504 21.154C73.2893 21.3407 73.182 21.602 73.182 21.938C73.182 22.2647 73.294 22.54 73.518 22.764C73.742 22.9787 74.1013 23.24 74.596 23.548C74.68 23.5947 74.806 23.674 74.974 23.786C75.4033 24.066 75.7487 24.3133 76.01 24.528C76.2713 24.7427 76.4813 24.99 76.64 25.27C76.808 25.55 76.892 25.872 76.892 26.236C76.892 26.852 76.6587 27.3327 76.192 27.678C75.7347 28.0233 75.17 28.196 74.498 28.196C74.078 28.196 73.7093 28.1307 73.392 28C73.1867 27.8973 72.9953 27.7713 72.818 27.622C72.7807 27.5847 72.7387 27.566 72.692 27.566C72.6267 27.566 72.566 27.6127 72.51 27.706C72.4633 27.7993 72.426 27.93 72.398 28.098H72.076C72.1133 27.566 72.132 26.6327 72.132 25.298H72.454C72.5567 26.1753 72.7433 26.8333 73.014 27.272C73.2847 27.7013 73.7467 27.916 74.4 27.916C74.7267 27.916 75.016 27.8087 75.268 27.594C75.52 27.3793 75.646 27.0433 75.646 26.586C75.646 26.222 75.52 25.914 75.268 25.662C75.0253 25.41 74.624 25.1067 74.064 24.752C73.6067 24.4627 73.252 24.2247 73 24.038C72.7573 23.8513 72.552 23.6227 72.384 23.352C72.216 23.0813 72.132 22.764 72.132 22.4C72.132 21.812 72.328 21.364 72.72 21.056C73.112 20.748 73.6067 20.594 74.204 20.594ZM79.6537 27.79H81.1937C81.7724 27.79 82.225 27.6127 82.5517 27.258C82.8784 26.894 83.0744 26.32 83.1397 25.536H83.4617C83.4617 26.7587 83.4804 27.5987 83.5177 28.056C82.7804 28.0187 81.9124 28 80.9137 28C80.027 28 79.0844 28.0233 78.0857 28.07L82.1317 21H80.5917C79.9664 21 79.4997 21.1773 79.1917 21.532C78.893 21.8773 78.711 22.4513 78.6457 23.254H78.3237C78.3237 22.0313 78.305 21.1913 78.2677 20.734C79.005 20.7713 79.873 20.79 80.8717 20.79C81.7584 20.79 82.701 20.7667 83.6997 20.72L79.6537 27.79ZM90.6939 26.32C90.5259 26.8333 90.2086 27.2767 89.7419 27.65C89.2846 28.014 88.7292 28.196 88.0759 28.196C87.4132 28.196 86.8392 28.0467 86.3539 27.748C85.8686 27.44 85.4952 27.0153 85.2339 26.474C84.9819 25.9233 84.8559 25.2887 84.8559 24.57C84.8559 23.758 84.9866 23.0533 85.2479 22.456C85.5092 21.8587 85.8779 21.4013 86.3539 21.084C86.8299 20.7573 87.3852 20.594 88.0199 20.594C88.8599 20.594 89.5039 20.8507 89.9519 21.364C90.4092 21.868 90.6379 22.638 90.6379 23.674H86.2559C86.2279 23.9353 86.2139 24.234 86.2139 24.57C86.2139 25.186 86.3119 25.7227 86.5079 26.18C86.7132 26.6373 86.9792 26.992 87.3059 27.244C87.6419 27.4867 87.9919 27.608 88.3559 27.608C88.8039 27.608 89.2006 27.5007 89.5459 27.286C89.8912 27.0713 90.1806 26.712 90.4139 26.208L90.6939 26.32ZM87.9639 20.86C87.5252 20.86 87.1472 21.0747 86.8299 21.504C86.5126 21.9333 86.3166 22.568 86.2419 23.408H89.2939C89.3126 22.68 89.2052 22.0733 88.9719 21.588C88.7479 21.1027 88.4119 20.86 87.9639 20.86ZM93.9539 20.804H96.0259V21.084H93.9539V26.502C93.9539 26.922 94.0286 27.2253 94.1779 27.412C94.3366 27.5987 94.5606 27.692 94.8499 27.692C95.1393 27.692 95.3866 27.5753 95.5919 27.342C95.7973 27.1087 95.9699 26.726 96.1099 26.194L96.3899 26.264C96.1566 27.552 95.5499 28.196 94.5699 28.196C94.2526 28.196 93.9913 28.1587 93.7859 28.084C93.5806 28.0093 93.3986 27.8927 93.2399 27.734C93.0346 27.5287 92.8899 27.2767 92.8059 26.978C92.7313 26.6793 92.6939 26.278 92.6939 25.774V21.084H91.3499V20.804H92.6939V18.662C93.2166 18.6433 93.6366 18.578 93.9539 18.466V20.804Z" fill="black"/>
</svg>
